<svg xmlns="http://www.w3.org/2000/svg" class="svg-inline--fa fa-newspaper fa-w-18 fa-2x" role="img" aria-hidden="true" viewBox="0 0 576 512" data-prefix="fal" data-icon="newspaper"><path class="" fill="currentColor" d="M 552 64 H 88 c -13.234 0 -24 10.767 -24 24 v 8 H 24 c -13.255 0 -24 10.745 -24 24 v 280 c 0 26.51 21.49 48 48 48 h 504 c 13.233 0 24 -10.767 24 -24 V 88 c 0 -13.233 -10.767 -24 -24 -24 Z M 32 400 V 128 h 32 v 272 c 0 8.822 -7.178 16 -16 16 s -16 -7.178 -16 -16 Z m 512 16 H 93.258 A 47.897 47.897 0 0 0 96 400 V 96 h 448 v 320 Z m -404 -96 h 168 c 6.627 0 12 -5.373 12 -12 V 140 c 0 -6.627 -5.373 -12 -12 -12 H 140 c -6.627 0 -12 5.373 -12 12 v 168 c 0 6.627 5.373 12 12 12 Z m 20 -160 h 128 v 128 H 160 V 160 Z m -32 212 v -8 c 0 -6.627 5.373 -12 12 -12 h 168 c 6.627 0 12 5.373 12 12 v 8 c 0 6.627 -5.373 12 -12 12 H 140 c -6.627 0 -12 -5.373 -12 -12 Z m 224 0 v -8 c 0 -6.627 5.373 -12 12 -12 h 136 c 6.627 0 12 5.373 12 12 v 8 c 0 6.627 -5.373 12 -12 12 H 364 c -6.627 0 -12 -5.373 -12 -12 Z m 0 -64 v -8 c 0 -6.627 5.373 -12 12 -12 h 136 c 6.627 0 12 5.373 12 12 v 8 c 0 6.627 -5.373 12 -12 12 H 364 c -6.627 0 -12 -5.373 -12 -12 Z m 0 -128 v -8 c 0 -6.627 5.373 -12 12 -12 h 136 c 6.627 0 12 5.373 12 12 v 8 c 0 6.627 -5.373 12 -12 12 H 364 c -6.627 0 -12 -5.373 -12 -12 Z m 0 64 v -8 c 0 -6.627 5.373 -12 12 -12 h 136 c 6.627 0 12 5.373 12 12 v 8 c 0 6.627 -5.373 12 -12 12 H 364 c -6.627 0 -12 -5.373 -12 -12 Z" /></svg>